{"glyphs":{" ":{"ha":313,"x_min":0,"x_max":0,"o":""},"A":{"ha":1014,"x_min":0,"x_max":0,"o":"m 236 378 l 778 378 l 778 421 b 756 550 778 471 769 513 l 660 776 b 572 861 639 825 624 861 l 436 861 b 347 778 381 861 365 825 l 258 550 b 236 421 244 513 236 471 m 458 708 b 485 732 465 725 474 732 l 519 732 b 546 708 531 732 539 725 l 611 497 l 393 497 l 458 708 m 533 703 b 519 718 529 711 526 718 l 485 718 b 471 703 478 718 475 711 l 472 704 l 413 511 l 592 511 l 532 704 m 778 364 l 236 364 l 236 125 l 222 125 l 222 421 b 246 556 222 472 231 515 l 335 783 b 436 875 356 835 372 875 l 572 875 b 672 782 633 875 650 836 l 768 556 b 792 421 783 515 792 472 l 792 125 l 778 125 m 379 244 l 625 244 l 625 50 b 679 0 625 15 642 0 l 889 0 b 939 50 924 0 939 15 l 939 417 b 885 639 939 472 922 542 l 764 954 b 694 1000 753 986 731 1000 l 321 1000 b 250 954 283 1000 261 986 l 129 639 b 75 417 92 542 75 472 l 75 50 b 125 0 75 15 90 0 l 329 0 b 379 50 364 0 379 15 m 125 -14 b 61 50 81 -14 61 6 l 61 417 b 117 644 61 474 78 544 l 238 958 b 321 1014 250 997 276 1014 l 694 1014 b 776 960 738 1014 764 997 l 897 644 b 953 417 936 544 953 474 l 953 50 b 889 -14 953 6 933 -14 l 679 -14 b 611 50 632 -14 611 7 l 611 231 l 393 231 l 393 50 b 329 -14 393 6 374 -14 l 125 -14 "},"B":{"ha":1007,"x_min":0,"x_max":0,"o":"m 146 -14 b 82 50 101 -14 82 6 l 82 950 b 146 1014 82 994 101 1014 l 589 1014 b 869 788 783 1014 869 940 l 869 721 b 814 579 869 654 851 608 b 963 356 914 556 963 486 l 963 228 b 679 -14 963 64 875 -14 l 146 -14 m 679 0 b 949 228 864 0 949 72 l 949 356 b 774 571 949 492 893 560 b 856 721 829 594 856 643 l 856 788 b 589 1000 856 933 771 1000 l 146 1000 b 96 950 111 1000 96 985 l 96 50 b 146 0 96 15 111 0 l 679 0 m 250 125 l 250 875 l 532 875 b 714 728 686 875 714 808 l 714 639 b 625 513 714 583 704 533 b 806 353 779 513 806 444 l 806 264 b 624 125 806 182 779 125 m 264 861 l 264 513 l 532 513 b 700 639 685 513 700 572 l 700 728 b 532 861 700 803 672 861 m 526 764 b 579 708 563 764 579 746 l 579 669 b 526 614 579 632 563 614 l 408 614 l 408 764 m 422 750 l 422 628 l 526 628 b 565 669 554 628 565 642 l 565 708 b 526 750 565 736 554 750 m 264 499 l 264 139 l 624 139 b 792 264 763 139 792 188 l 792 353 b 625 499 792 436 765 499 m 589 400 b 642 346 625 400 642 383 l 642 292 b 589 236 642 254 625 236 l 408 236 l 408 400 m 422 386 l 422 250 l 589 250 b 628 292 617 250 628 264 l 628 346 b 589 386 628 374 615 386 "},"C":{"ha":872,"x_min":0,"x_max":0,"o":"m 825 50 b 761 -14 825 6 806 -14 l 422 -14 b 67 283 178 -14 67 82 l 67 715 b 422 1014 67 918 178 1014 l 761 1014 b 825 950 806 1014 825 994 l 825 782 b 761 718 825 738 806 718 l 482 718 b 411 663 435 718 411 701 l 411 332 b 482 279 411 293 436 279 l 761 279 b 825 215 806 279 825 260 l 825 50 m 761 0 b 811 50 796 0 811 15 l 811 215 b 761 265 811 250 796 265 l 482 265 b 397 332 424 265 397 286 l 397 663 b 482 732 397 710 424 732 l 761 732 b 811 782 796 732 811 747 l 811 950 b 761 1000 811 985 796 1000 l 422 1000 b 81 715 189 1000 81 910 l 81 283 b 422 0 81 90 189 0 l 761 0 m 685 125 l 453 125 b 231 304 272 125 231 175 l 231 693 b 453 875 231 825 275 875 l 685 875 l 685 861 l 453 861 b 244 693 289 861 244 817 l 244 304 b 453 139 244 183 286 139 l 685 139 "},"D":{"ha":1036,"x_min":0,"x_max":0,"o":"m 969 283 b 614 -14 969 82 858 -14 l 146 -14 b 82 50 101 -14 82 6 l 82 950 b 146 1014 82 994 101 1014 l 614 1014 b 969 717 858 1014 969 918 l 969 283 m 614 0 b 956 283 847 0 956 90 l 956 717 b 614 1000 956 910 847 1000 l 146 1000 b 96 950 111 1000 96 985 l 96 50 b 146 0 96 15 111 0 l 614 0 m 247 875 l 583 875 b 806 682 772 875 806 789 l 806 314 b 583 125 806 207 775 125 l 247 125 m 261 861 l 261 139 l 583 139 b 792 314 761 139 792 213 l 792 682 b 583 861 792 783 758 861 m 576 735 b 642 668 621 735 642 714 l 642 331 b 576 263 642 283 621 263 l 411 263 l 411 735 m 425 721 l 425 276 l 576 276 b 628 331 611 276 628 293 l 628 668 b 576 721 628 704 611 721 "},"E":{"ha":908,"x_min":0,"x_max":0,"o":"m 146 -14 b 82 50 101 -14 82 6 l 82 950 b 146 1014 82 994 101 1014 l 790 1014 b 854 950 835 1014 854 994 l 854 788 b 790 724 854 743 835 724 l 421 724 l 421 644 l 678 644 b 742 581 722 644 742 625 l 742 432 b 678 368 742 388 722 368 l 421 368 l 421 276 l 790 276 b 854 213 835 276 854 257 l 854 50 b 790 -14 854 6 835 -14 l 146 -14 m 790 0 b 840 50 825 0 840 15 l 840 213 b 790 263 840 247 825 263 l 407 263 l 407 382 l 678 382 b 728 432 713 382 728 397 l 728 581 b 678 631 728 615 713 631 l 407 631 l 407 738 l 790 738 b 840 788 825 738 840 753 l 840 950 b 790 1000 840 985 825 1000 l 146 1000 b 96 950 111 1000 96 985 l 96 50 b 146 0 96 15 111 0 l 790 0 m 715 125 l 247 125 l 247 875 l 715 875 l 715 861 l 261 861 l 261 513 l 603 513 l 603 499 l 261 499 l 261 139 l 715 139 "},"F":{"ha":858,"x_min":0,"x_max":0,"o":"m 146 -14 b 82 50 101 -14 82 6 l 82 950 b 146 1014 82 994 101 1014 l 765 1014 b 829 950 810 1014 829 994 l 829 785 b 765 721 829 740 810 721 l 425 721 l 425 604 l 653 604 b 717 540 697 604 717 585 l 717 374 b 653 310 717 329 697 310 l 425 310 l 425 50 b 361 -14 425 6 406 -14 l 146 -14 m 361 0 b 411 50 396 0 411 15 l 411 324 l 653 324 b 703 374 688 324 703 339 l 703 540 b 653 590 703 575 688 590 l 411 590 l 411 735 l 765 735 b 815 785 800 735 815 750 l 815 950 b 765 1000 815 985 800 1000 l 146 1000 b 96 950 111 1000 96 985 l 96 50 b 146 0 96 15 111 0 l 361 0 m 247 875 l 690 875 l 690 861 l 261 861 l 261 464 l 578 464 l 578 450 l 261 450 l 261 125 l 247 125 "},"G":{"ha":983,"x_min":0,"x_max":0,"o":"m 422 -14 b 67 283 178 -14 67 82 l 67 717 b 422 1014 67 918 178 1014 l 769 1014 b 833 950 814 1014 833 994 l 833 782 b 769 718 833 738 814 718 l 481 718 b 410 663 433 718 410 701 l 410 331 b 460 276 410 293 425 276 l 581 276 l 581 479 b 644 543 581 524 600 543 l 860 543 b 924 479 904 543 924 524 l 924 50 b 860 -14 924 6 904 -14 l 422 -14 m 860 0 b 910 50 894 0 910 15 l 910 479 b 860 529 910 514 894 529 l 644 529 b 594 479 610 529 594 514 l 594 263 l 460 263 b 396 331 417 263 396 283 l 396 663 b 481 732 396 710 422 732 l 769 732 b 819 782 804 732 819 747 l 819 950 b 769 1000 819 985 804 1000 l 422 1000 b 81 717 189 1000 81 910 l 81 283 b 422 0 81 90 189 0 l 860 0 m 482 125 b 232 304 278 125 232 175 l 232 693 b 454 875 232 825 276 875 l 694 875 l 694 861 l 454 861 b 246 693 290 861 246 817 l 246 304 b 482 139 246 183 294 139 l 744 139 l 744 404 l 758 404 l 758 125 l 482 125 "},"H":{"ha":1054,"x_min":0,"x_max":0,"o":"m 246 875 l 260 875 l 260 507 l 793 507 l 793 875 l 807 875 l 807 125 l 793 125 l 793 493 l 260 493 l 260 125 l 246 125 m 361 0 b 411 50 396 0 411 15 l 411 358 l 643 358 l 643 50 b 693 0 643 15 658 0 l 908 0 b 958 50 943 0 958 15 l 958 950 b 908 1000 958 985 943 1000 l 693 1000 b 643 950 658 1000 643 985 l 643 649 l 411 649 l 411 950 b 361 1000 411 985 396 1000 l 146 1000 b 96 950 111 1000 96 985 l 96 50 b 146 0 96 15 111 0 l 361 0 m 146 -14 b 82 50 101 -14 82 6 l 82 950 b 146 1014 82 994 101 1014 l 361 1014 b 425 950 406 1014 425 994 l 425 663 l 629 663 l 629 950 b 693 1014 629 994 649 1014 l 908 1014 b 972 950 953 1014 972 994 l 972 50 b 908 -14 972 6 953 -14 l 693 -14 b 629 50 649 -14 629 6 l 629 344 l 425 344 l 425 50 b 361 -14 425 6 406 -14 l 146 -14 "},"I":{"ha":840,"x_min":0,"x_max":0,"o":"m 124 -14 b 60 50 79 -14 60 6 l 60 215 b 124 279 60 260 79 279 l 247 279 l 247 718 l 124 718 b 60 782 79 718 60 738 l 60 950 b 124 1014 60 994 79 1014 l 715 1014 b 779 950 760 1014 779 994 l 779 782 b 715 718 779 738 760 718 l 594 718 l 594 279 l 715 279 b 779 215 760 279 779 260 l 779 50 b 715 -14 779 6 760 -14 l 124 -14 m 715 0 b 765 50 750 0 765 15 l 765 215 b 715 265 765 250 750 265 l 581 265 l 581 732 l 715 732 b 765 782 750 732 765 747 l 765 950 b 715 1000 765 985 750 1000 l 124 1000 b 74 950 89 1000 74 985 l 74 782 b 124 732 74 747 89 732 l 261 732 l 261 265 l 124 265 b 74 215 89 265 74 250 l 74 50 b 124 0 74 15 89 0 m 199 125 l 199 139 l 414 139 l 414 861 l 199 861 l 199 875 l 640 875 l 640 861 l 428 861 l 428 139 l 640 139 l 640 125 "},"J":{"ha":956,"x_min":0,"x_max":0,"o":"m 881 263 b 460 -35 881 88 803 -35 b 43 263 121 -35 43 88 l 43 488 b 107 551 43 533 63 551 l 308 551 b 372 488 353 551 372 533 l 372 318 b 457 267 372 286 389 267 b 535 318 521 267 535 286 l 535 950 b 599 1014 535 994 554 1014 l 817 1014 b 881 950 861 1014 881 994 m 867 950 b 817 1000 867 985 851 1000 l 599 1000 b 549 950 564 1000 549 985 l 549 318 b 457 253 549 281 538 253 b 358 318 371 253 358 281 l 358 488 b 308 538 358 524 343 538 l 107 538 b 57 488 72 538 57 524 l 57 263 b 460 -21 57 93 136 -21 b 867 263 786 -21 867 93 m 714 875 l 714 296 b 463 108 714 186 660 108 b 201 296 254 108 201 185 l 201 406 l 215 406 l 215 296 b 463 122 215 190 271 122 b 700 296 646 122 700 192 l 700 875 "},"K":{"ha":1036,"x_min":0,"x_max":0,"o":"m 247 125 l 247 875 l 261 875 l 261 506 l 563 506 l 722 875 l 738 875 l 578 506 l 635 506 b 803 369 749 506 803 467 l 803 125 l 789 125 l 789 369 b 635 492 789 458 738 492 l 261 492 l 261 125 m 361 0 b 411 50 396 0 411 15 l 411 368 l 594 368 b 639 321 624 368 639 351 l 639 50 b 689 0 639 15 654 0 l 903 0 b 953 50 938 0 953 15 l 953 442 b 782 631 953 553 886 625 l 924 954 b 893 1000 936 983 925 1000 l 679 1000 b 610 954 643 1000 624 988 l 467 631 l 411 631 l 411 950 b 361 1000 411 985 396 1000 l 146 1000 b 96 950 111 1000 96 985 l 96 50 b 146 0 96 15 111 0 l 361 0 m 146 -14 b 82 50 101 -14 82 6 l 82 950 b 146 1014 82 994 101 1014 l 361 1014 b 425 950 406 1014 425 994 l 425 644 l 458 644 l 597 960 b 679 1014 614 999 636 1014 l 893 1014 b 936 949 939 1014 954 990 l 803 643 b 967 442 903 629 967 554 l 967 50 b 903 -14 967 6 947 -14 l 689 -14 b 625 50 644 -14 625 6 l 625 321 b 594 354 625 342 615 354 l 425 354 l 425 50 b 361 -14 425 6 406 -14 "},"L":{"ha":965,"x_min":0,"x_max":0,"o":"m 146 -14 b 82 50 101 -14 82 6 l 82 950 b 146 1014 82 994 101 1014 l 361 1014 b 425 950 406 1014 425 994 l 425 276 l 588 276 l 588 488 b 651 551 588 532 607 551 l 853 551 b 917 488 897 551 917 532 l 917 50 b 853 -14 917 6 897 -14 l 146 -14 m 853 0 b 903 50 888 0 903 15 l 903 488 b 853 538 903 522 888 538 l 651 538 b 601 488 617 538 601 522 l 601 263 l 411 263 l 411 950 b 361 1000 411 985 396 1000 l 146 1000 b 96 950 111 1000 96 985 l 96 50 b 146 0 96 15 111 0 l 853 0 m 247 875 l 261 875 l 261 139 l 744 139 l 744 413 l 758 413 l 758 125 l 247 125 "},"M":{"ha":1179,"x_min":0,"x_max":0,"o":"m 585 535 b 656 593 618 535 624 544 l 825 851 b 865 875 836 869 850 875 l 889 875 b 926 832 915 875 926 863 l 926 125 l 913 125 l 913 832 b 889 861 913 847 908 861 l 868 861 b 836 842 856 861 847 860 l 667 586 b 585 521 633 536 625 521 b 503 586 544 521 536 536 l 333 842 b 300 861 322 860 313 861 l 279 861 b 257 832 260 861 257 847 l 257 125 l 243 125 l 243 832 b 279 875 243 863 254 875 l 303 875 b 344 851 318 875 333 869 l 514 593 b 585 535 546 544 551 535 m 353 0 b 403 50 388 0 403 15 l 403 539 l 485 388 b 558 343 501 356 522 343 l 614 343 b 688 388 650 343 671 356 l 769 539 l 769 50 b 819 0 769 15 783 0 l 1033 0 b 1083 50 1068 0 1083 15 l 1083 950 b 1033 1000 1083 985 1068 1000 l 808 1000 b 744 958 779 1000 761 989 l 621 732 b 596 708 611 715 607 708 l 583 708 b 558 732 572 708 568 715 l 433 958 b 369 1000 417 989 399 1000 l 146 1000 b 96 950 111 1000 96 985 l 96 50 b 146 0 96 15 111 0 l 353 0 m 146 -14 b 82 50 101 -14 82 6 l 82 950 b 146 1014 82 994 101 1014 l 369 1014 b 446 965 404 1014 425 1001 l 571 739 b 583 722 575 731 576 722 l 596 722 b 608 739 603 722 604 731 l 732 965 b 808 1014 753 1001 774 1014 l 1033 1014 b 1097 950 1078 1014 1097 994 l 1097 50 b 1033 -14 1097 6 1078 -14 l 819 -14 b 756 50 774 -14 756 6 l 756 483 l 700 381 b 614 329 681 344 656 329 l 558 329 b 472 381 517 329 492 344 l 417 483 l 417 50 b 353 -14 417 6 397 -14 "},"N":{"ha":1046,"x_min":0,"x_max":0,"o":"m 790 289 l 790 875 l 804 875 l 804 125 l 790 125 l 790 268 l 265 857 b 258 861 263 860 261 861 b 256 857 256 861 256 858 l 256 125 l 242 125 l 242 860 b 258 876 242 871 250 876 b 279 864 267 876 269 874 m 354 0 b 404 50 389 0 404 15 l 404 508 l 642 221 l 642 50 b 692 0 642 15 657 0 l 900 0 b 950 50 935 0 950 15 l 950 950 b 900 1000 950 985 935 1000 l 692 1000 b 642 950 657 1000 642 985 l 642 654 l 372 963 b 290 1000 349 990 326 1000 l 146 1000 b 96 950 111 1000 96 985 l 96 50 b 146 0 96 15 111 0 l 354 0 m 146 -14 b 82 50 101 -14 82 6 l 82 950 b 146 1014 82 994 101 1014 l 290 1014 b 383 972 331 1014 356 1003 l 628 693 l 628 950 b 692 1014 628 994 647 1014 l 900 1014 b 964 950 944 1014 964 994 l 964 50 b 900 -14 964 6 944 -14 l 692 -14 b 628 50 647 -14 628 6 l 628 215 l 418 469 l 418 50 b 354 -14 418 6 399 -14 "},"O":{"ha":1024,"x_min":0,"x_max":0,"o":"m 957 263 b 513 -35 957 88 876 -35 b 67 263 149 -35 67 88 l 67 736 b 513 1035 67 911 149 1035 b 957 736 876 1035 957 911 m 943 736 b 513 1021 943 906 860 1021 b 81 736 165 1021 81 906 l 81 263 b 513 -21 81 93 165 -21 b 943 263 860 -21 943 93 m 792 294 b 510 107 792 182 728 107 b 231 294 292 107 231 182 l 231 704 b 510 892 231 817 292 892 b 792 704 728 892 792 817 l 792 294 m 244 294 b 510 121 244 190 303 121 b 778 294 717 121 778 190 l 778 704 b 510 878 778 808 717 878 b 244 704 303 878 244 808 l 244 294 m 396 686 b 513 750 396 722 413 750 b 629 686 614 750 629 722 l 629 313 b 513 247 629 275 614 247 b 396 313 413 247 396 275 m 410 313 b 513 261 410 279 433 261 b 615 313 592 261 615 279 l 615 686 b 513 736 615 718 592 736 b 410 686 435 736 410 718 "},"P":{"ha":947,"x_min":0,"x_max":0,"o":"m 146 -14 b 82 50 101 -14 82 6 l 82 950 b 146 1014 82 994 101 1014 l 571 1014 b 913 729 836 1014 913 897 l 913 551 b 571 267 913 383 836 267 l 425 267 l 425 50 b 361 -14 425 6 406 -14 l 146 -14 m 361 0 b 411 50 396 0 411 15 l 411 281 l 571 281 b 899 551 824 281 899 390 l 899 729 b 571 1000 899 890 824 1000 l 146 1000 b 96 950 111 1000 96 985 l 96 50 b 146 0 96 15 111 0 l 361 0 m 265 399 l 265 125 l 251 125 l 251 875 l 551 875 b 760 686 726 875 760 794 l 760 583 b 551 399 760 475 726 399 m 551 413 b 746 583 715 413 746 483 l 746 686 b 551 861 746 786 715 861 l 265 861 l 265 413 m 533 740 b 599 672 588 740 599 708 l 599 599 b 533 531 599 563 588 531 l 408 531 l 408 740 m 422 726 l 422 544 l 533 544 b 585 599 576 544 585 571 l 585 672 b 533 726 585 700 576 726 "},"Q":{"ha":1024,"x_min":0,"x_max":0,"o":"m 404 -139 b 340 -75 360 -139 340 -119 l 340 -11 b 67 275 124 25 67 132 l 67 736 b 513 1035 67 911 149 1035 b 957 736 876 1035 957 911 l 957 275 b 682 -11 957 132 901 24 l 682 -75 b 618 -139 682 -119 663 -139 l 404 -139 m 618 -125 b 668 -75 653 -125 668 -110 l 668 1 b 943 275 886 32 943 135 l 943 736 b 513 1021 943 906 860 1021 b 81 736 165 1021 81 906 l 81 275 b 354 1 81 135 139 33 l 354 -75 b 404 -125 354 -110 369 -125 l 618 -125 m 503 107 b 231 294 290 108 231 183 l 231 704 b 510 892 231 817 292 892 b 792 704 728 892 792 817 l 792 294 b 517 107 792 183 729 108 l 517 0 l 503 0 m 244 294 b 510 121 244 190 303 121 b 778 294 717 121 778 190 l 778 704 b 510 878 778 808 717 878 b 244 704 303 878 244 808 l 244 294 m 396 685 b 513 749 396 721 413 749 b 629 685 614 749 629 721 l 629 306 b 513 240 629 268 614 240 b 396 306 413 240 396 268 m 410 306 b 513 254 410 272 433 254 b 615 306 592 254 615 272 l 615 685 b 513 735 615 717 592 735 b 410 685 435 735 410 717 "},"R":{"ha":1032,"x_min":0,"x_max":0,"o":"m 260 861 l 260 460 l 563 460 b 707 619 678 460 707 517 l 707 717 b 563 861 707 803 661 861 m 514 750 b 575 685 563 750 575 722 l 575 638 b 514 572 575 600 563 572 l 410 572 l 410 750 m 424 736 l 424 586 l 514 586 b 561 638 553 586 561 608 l 561 685 b 514 736 561 714 553 736 m 246 125 l 246 875 l 563 875 b 721 717 671 875 721 808 l 721 621 b 638 460 721 536 704 481 l 653 460 b 821 311 767 460 821 408 l 821 125 l 807 125 l 807 311 b 653 447 807 403 758 447 l 260 447 l 260 125 m 360 0 b 410 50 394 0 410 15 l 410 322 l 604 322 b 657 263 643 322 657 304 l 657 50 b 707 0 657 15 672 0 l 922 0 b 972 50 957 0 972 15 l 972 344 b 804 546 972 461 906 535 b 882 704 863 571 882 626 l 882 768 b 608 1000 882 906 817 1000 l 146 1000 b 96 950 111 1000 96 985 l 96 50 b 146 0 96 15 111 0 l 360 0 m 146 -14 b 82 50 101 -14 82 6 l 82 950 b 146 1014 82 994 101 1014 l 608 1014 b 896 768 829 1014 896 913 l 896 704 b 842 553 896 636 881 585 b 986 344 929 528 986 454 l 986 50 b 922 -14 986 6 967 -14 l 707 -14 b 643 50 663 -14 643 6 l 643 263 b 604 308 643 293 633 308 l 424 308 l 424 50 b 360 -14 424 6 404 -14 "},"S":{"ha":903,"x_min":0,"x_max":0,"o":"m 861 244 b 560 -14 861 78 749 -14 l 121 -14 b 57 50 76 -14 57 6 l 57 213 b 121 276 57 257 76 276 l 494 276 b 517 303 510 276 517 289 b 493 336 517 324 510 335 l 285 365 b 57 610 146 386 57 446 l 57 756 b 358 1014 57 922 168 1014 l 747 1014 b 811 950 792 1014 811 994 l 811 785 b 747 721 811 740 792 721 l 424 721 b 400 693 408 721 400 708 b 425 663 400 676 408 664 l 632 635 b 861 390 771 614 861 554 l 861 244 m 560 0 b 847 244 739 0 847 86 l 847 390 b 631 621 847 546 761 601 l 424 649 b 386 693 400 651 386 668 b 424 735 386 718 400 735 l 747 735 b 797 785 782 735 797 750 l 797 950 b 747 1000 797 985 782 1000 l 358 1000 b 71 756 178 1000 71 914 l 71 610 b 286 379 71 454 156 399 l 494 350 b 531 303 518 347 531 335 b 494 263 531 281 518 263 l 121 263 b 71 213 86 263 71 247 l 71 50 b 121 0 71 15 86 0 l 560 0 m 672 861 l 364 861 b 236 749 286 861 236 814 l 236 635 b 307 542 236 569 264 550 l 600 482 b 696 346 656 471 696 443 l 696 265 b 542 125 696 183 636 125 l 196 125 l 196 139 l 542 139 b 682 265 628 139 682 192 l 682 346 b 597 468 682 433 649 457 l 304 528 b 222 635 256 538 222 558 l 222 749 b 364 875 222 822 278 875 l 672 875 "},"T":{"ha":911,"x_min":0,"x_max":0,"o":"m 343 -14 b 279 50 299 -14 279 6 l 279 718 l 89 718 b 25 782 44 718 25 738 l 25 950 b 89 1014 25 994 44 1014 l 822 1014 b 886 950 867 1014 886 994 l 886 782 b 822 718 886 738 867 718 l 632 718 l 632 50 b 568 -14 632 6 613 -14 l 343 -14 m 568 0 b 618 50 603 0 618 15 l 618 732 l 822 732 b 872 782 857 732 872 747 l 872 950 b 822 1000 872 985 857 1000 l 89 1000 b 39 950 54 1000 39 985 l 39 782 b 89 732 39 747 54 732 l 293 732 l 293 50 b 343 0 293 15 308 0 l 568 0 m 449 861 l 164 861 l 164 875 l 747 875 l 747 861 l 463 861 l 463 125 l 449 125 "},"U":{"ha":1036,"x_min":0,"x_max":0,"o":"m 961 263 b 518 -35 961 88 879 -35 b 75 263 157 -35 75 88 l 75 950 b 139 1014 75 994 94 1014 l 357 1014 b 421 950 401 1014 421 994 l 421 317 b 521 265 421 283 444 265 b 622 317 599 265 622 283 l 622 950 b 686 1014 622 994 640 1014 l 897 1014 b 961 950 942 1014 961 994 m 947 950 b 897 1000 947 985 932 1000 l 686 1000 b 636 950 650 1000 636 985 l 636 317 b 521 251 636 279 619 251 b 407 317 424 251 407 279 l 407 950 b 357 1000 407 985 392 1000 l 139 1000 b 89 950 104 1000 89 985 l 89 263 b 518 -21 89 93 174 -21 b 947 263 863 -21 947 93 m 256 875 l 256 296 b 519 122 256 192 313 122 b 785 296 726 122 785 192 l 785 875 l 799 875 l 799 296 b 519 108 799 183 738 108 b 242 296 301 108 242 183 l 242 875 "},"V":{"ha":1014,"x_min":0,"x_max":0,"o":"m 771 40 b 688 -14 754 0 731 -14 l 326 -14 b 243 40 283 -14 260 0 l 107 381 b 61 583 72 467 61 493 l 61 950 b 125 1014 61 994 81 1014 l 346 1014 b 414 950 390 1014 414 993 l 414 567 b 424 514 414 549 418 533 l 490 319 b 503 306 493 310 494 306 l 518 306 b 532 319 526 306 528 310 l 597 515 b 607 568 603 535 607 550 l 607 950 b 671 1014 607 994 626 1014 l 889 1014 b 953 950 935 1014 953 994 l 953 583 b 907 381 953 493 942 467 l 771 40 m 688 0 b 758 46 724 0 744 11 l 894 386 b 939 583 928 469 939 496 l 939 950 b 889 1000 939 985 925 1000 l 671 1000 b 621 950 636 1000 621 985 l 621 568 b 610 511 621 549 617 532 l 544 315 b 518 292 539 297 533 292 l 503 292 b 476 315 488 292 482 297 l 411 510 b 400 567 404 531 400 547 l 400 950 b 346 1000 400 985 381 1000 l 125 1000 b 75 950 90 1000 75 985 l 75 583 b 119 386 75 496 86 469 l 256 46 b 326 0 269 11 290 0 l 688 0 m 246 875 l 246 575 b 268 446 246 526 253 483 l 360 224 b 447 139 379 175 394 139 l 569 139 b 657 224 622 139 638 175 l 749 446 b 771 575 764 483 771 526 l 771 875 l 785 875 l 785 575 b 763 440 785 524 779 481 l 671 218 b 569 125 649 164 628 125 l 447 125 b 346 218 389 125 368 164 l 254 440 b 232 575 238 481 232 524 l 232 875 "},"W":{"ha":1154,"x_min":0,"x_max":0,"o":"m 610 479 b 678 414 639 479 654 467 l 792 158 b 829 139 800 139 815 139 l 836 139 b 868 168 851 139 865 153 l 903 326 b 910 467 910 361 910 425 l 910 875 l 924 875 l 924 465 b 917 325 924 424 924 360 l 882 168 b 836 125 875 138 858 125 l 826 125 b 781 149 810 125 789 129 l 667 407 b 610 465 644 457 632 465 l 547 465 b 490 407 525 465 513 457 l 376 149 b 331 125 368 129 347 125 l 321 125 b 275 168 299 125 282 138 l 240 325 b 233 465 233 360 233 424 l 233 875 l 247 875 l 247 467 b 254 326 247 425 247 361 l 289 168 b 321 139 292 153 306 139 l 328 139 b 365 158 342 139 357 139 l 479 414 b 547 479 503 467 518 479 l 610 479 m 814 1000 b 764 950 778 1000 764 985 l 764 439 l 683 614 b 610 657 668 646 646 657 l 551 657 b 478 614 515 657 493 646 l 397 439 l 397 950 b 347 1000 397 985 382 1000 l 133 1000 b 83 950 99 1000 83 985 l 83 414 b 108 242 83 354 83 310 l 178 50 b 239 0 188 21 208 0 l 422 0 b 481 42 451 0 472 14 l 546 268 b 571 292 551 286 560 292 l 583 292 b 608 268 594 292 603 286 l 672 42 b 736 0 681 13 706 0 l 921 0 b 976 50 950 0 967 22 l 1046 239 b 1071 411 1071 307 1071 351 l 1071 950 b 1021 1000 1071 985 1056 1000 l 814 1000 m 239 -14 b 165 46 203 -14 176 10 l 96 238 b 69 414 69 307 69 353 l 69 950 b 133 1014 69 994 89 1014 l 347 1014 b 411 950 392 1014 411 994 l 411 501 l 465 619 b 551 671 483 657 508 671 l 610 671 b 696 619 653 671 678 657 l 750 501 l 750 950 b 814 1014 750 994 768 1014 l 1021 1014 b 1085 950 1065 1014 1085 994 l 1085 411 b 1058 235 1085 350 1085 304 l 989 46 b 921 -14 978 11 956 -14 l 736 -14 b 658 38 699 -14 669 3 l 594 264 b 583 278 593 272 589 278 l 571 278 b 560 264 565 278 561 272 l 494 38 b 422 -14 483 4 458 -14 "},"X":{"ha":1024,"x_min":0,"x_max":0,"o":"m 246 125 l 232 125 l 232 188 b 253 294 232 228 231 264 l 419 522 l 253 747 b 232 854 232 776 232 814 l 232 875 l 246 875 l 246 854 b 265 753 246 815 246 779 l 432 528 l 597 528 l 758 753 b 778 854 776 779 778 815 l 778 875 l 792 875 l 792 854 b 771 747 792 814 792 776 l 607 519 l 771 294 b 792 188 792 265 792 228 l 792 125 l 778 125 l 778 188 b 758 289 778 226 778 263 l 596 514 l 429 514 l 265 289 b 246 188 247 264 246 226 m 394 188 b 407 246 394 207 393 226 l 469 333 b 503 357 481 350 488 357 l 522 357 b 556 333 538 357 544 350 l 617 246 b 629 188 631 226 629 207 l 629 50 b 679 0 629 15 644 0 l 890 0 b 940 50 925 0 940 15 l 940 199 b 888 369 940 285 931 313 l 775 519 l 888 672 b 940 843 929 729 940 757 l 940 950 b 890 1000 940 985 925 1000 l 679 1000 b 629 950 644 1000 629 985 l 629 854 b 617 796 629 835 629 814 l 554 708 b 521 685 543 693 536 685 l 504 685 b 471 708 489 685 481 693 l 410 796 b 397 854 397 814 397 835 l 397 950 b 347 1000 397 985 382 1000 l 133 1000 b 83 950 99 1000 83 985 l 83 843 b 136 672 83 757 93 729 l 249 521 l 136 369 b 83 199 94 313 83 285 l 83 50 b 133 0 83 15 99 0 l 344 0 b 394 50 379 0 394 15 m 133 -14 b 69 50 89 -14 69 6 l 69 199 b 125 378 69 289 81 318 l 232 521 l 125 664 b 69 843 81 724 69 753 l 69 950 b 133 1014 69 994 89 1014 l 347 1014 b 411 950 392 1014 411 994 l 411 854 b 421 804 411 838 410 819 l 482 715 b 504 699 489 706 493 699 l 521 699 b 543 717 532 699 536 707 l 606 804 b 615 854 617 819 615 838 l 615 950 b 679 1014 615 994 635 1014 l 890 1014 b 954 950 935 1014 954 994 l 954 843 b 899 664 954 753 943 724 l 792 519 l 899 378 b 954 199 943 318 954 289 l 954 50 b 890 -14 954 6 935 -14 l 679 -14 b 615 50 635 -14 615 6 l 615 188 b 606 238 615 204 617 221 l 544 325 b 522 343 536 336 533 343 l 503 343 b 481 325 492 343 489 336 l 418 238 b 408 188 407 221 408 204 l 408 50 b 344 -14 408 6 389 -14 "},"Y":{"ha":979,"x_min":0,"x_max":0,"o":"m 378 -14 b 314 50 332 -14 314 6 l 314 224 l 104 504 b 49 683 60 564 49 593 l 49 950 b 113 1014 49 994 68 1014 l 326 1014 b 390 950 371 1014 390 994 l 390 722 b 400 671 390 706 390 689 l 465 571 b 486 554 471 560 476 554 l 500 554 b 522 571 510 554 515 560 l 586 671 b 596 722 596 689 596 706 l 596 950 b 660 1014 596 994 615 1014 l 867 1014 b 931 950 911 1014 931 994 l 931 683 b 875 504 931 593 919 564 l 667 222 l 667 50 b 603 -14 667 6 647 -14 l 378 -14 m 603 0 b 653 50 638 0 653 15 l 653 226 l 864 513 b 917 683 906 569 917 597 l 917 950 b 867 1000 917 985 901 1000 l 660 1000 b 610 950 625 1000 610 985 l 610 722 b 597 664 610 703 610 683 l 533 564 b 500 540 524 547 515 540 l 486 540 b 453 564 471 540 463 547 l 389 664 b 376 722 376 683 376 703 l 376 950 b 326 1000 376 985 361 1000 l 113 1000 b 63 950 78 1000 63 985 l 63 683 b 115 513 63 597 72 569 l 328 228 l 328 50 b 378 0 328 15 342 0 l 603 0 m 497 363 l 497 125 l 483 125 l 483 363 l 469 363 b 368 421 429 363 399 379 l 233 608 b 213 715 213 636 213 675 l 213 875 l 226 875 l 226 715 b 246 614 226 676 228 642 l 381 426 b 469 376 406 389 438 376 l 507 376 b 597 426 542 376 569 390 l 736 614 b 756 715 756 639 756 676 l 756 875 l 769 875 l 769 715 b 749 608 769 675 771 638 l 610 421 b 507 363 579 381 550 363 "},"Z":{"ha":917,"x_min":0,"x_max":0,"o":"m 114 -14 b 50 50 69 -14 50 6 l 50 236 b 88 331 50 276 61 303 l 407 718 l 139 718 b 75 782 94 718 75 738 l 75 950 b 139 1014 75 994 94 1014 l 778 1014 b 842 950 822 1014 842 994 l 842 743 b 804 647 842 701 831 675 l 500 279 l 803 279 b 867 215 847 279 867 260 l 867 50 b 803 -14 867 6 847 -14 l 114 -14 m 803 0 b 853 50 838 0 853 15 l 853 215 b 803 265 853 250 838 265 l 471 265 l 793 656 b 828 743 818 682 828 706 l 828 950 b 778 1000 828 985 813 1000 l 139 1000 b 89 950 104 1000 89 985 l 89 782 b 139 732 89 747 104 732 l 436 732 l 99 322 b 64 236 74 296 64 272 l 64 50 b 114 0 64 15 79 0 l 803 0 m 250 233 b 231 190 236 217 231 208 l 231 171 b 260 139 231 144 244 139 l 728 139 l 728 125 l 260 125 b 217 171 229 125 217 139 l 217 193 b 240 244 217 214 226 228 l 647 767 b 667 810 661 783 667 792 l 667 829 b 638 861 667 856 653 861 l 214 861 l 214 875 l 638 875 b 681 829 668 875 681 861 l 681 807 b 657 756 681 786 671 772 "},"_":{"ha":1019,"x_min":0,"x_max":0,"o":"m 147 -157 b 83 -93 103 -157 83 -139 l 83 93 b 147 157 83 138 103 157 l 872 157 b 936 93 917 157 936 139 l 936 -93 b 872 -157 936 -139 917 -157 m 872 -143 b 922 -93 907 -143 922 -129 l 922 93 b 872 143 922 129 907 143 l 147 143 b 97 93 113 143 97 128 l 97 -93 b 147 -143 97 -129 113 -143 m 797 -7 l 222 -7 l 222 7 l 797 7 "},"-":{"ha":583,"x_min":0,"x_max":0,"o":"m 106 343 b 42 407 61 343 42 361 l 42 593 b 106 657 42 638 61 657 l 478 657 b 542 593 522 657 542 639 l 542 407 b 478 343 542 361 522 343 m 478 357 b 528 407 513 357 528 371 l 528 593 b 478 643 528 629 513 643 l 106 643 b 56 593 71 643 56 628 l 56 407 b 106 357 56 371 71 357 m 403 493 l 181 493 l 181 507 l 403 507 "},"(":{"ha":596,"x_min":0,"x_max":0,"o":"m 547 -61 b 483 -125 547 -106 528 -125 l 408 -125 b 53 172 133 -125 53 -3 l 53 826 b 408 1125 53 1003 133 1125 l 483 1125 b 547 1061 528 1125 547 1106 l 547 893 b 483 829 547 849 528 829 l 440 829 b 397 774 404 829 397 810 l 397 224 b 440 168 397 188 404 168 l 483 168 b 547 104 528 168 547 149 l 547 -61 m 483 -111 b 533 -61 518 -111 533 -96 l 533 104 b 483 154 533 139 518 154 l 440 154 b 383 224 396 154 383 175 l 383 774 b 440 843 383 822 396 843 l 483 843 b 533 893 518 843 533 858 l 533 1061 b 483 1111 533 1096 518 1111 l 408 1111 b 67 826 146 1111 67 996 l 67 172 b 408 -111 67 4 146 -111 l 483 -111 m 408 15 b 218 172 288 15 218 50 l 218 826 b 408 983 218 949 286 983 l 408 969 b 232 826 297 969 232 940 l 232 172 b 408 29 232 58 299 29 "},")":{"ha":596,"x_min":0,"x_max":0,"o":"m 543 172 b 188 -125 543 -3 463 -125 l 113 -125 b 49 -61 68 -125 49 -106 l 49 104 b 113 168 49 149 68 168 l 156 168 b 199 224 192 168 199 188 l 199 774 b 156 829 199 810 192 829 l 113 829 b 49 893 68 829 49 849 l 49 1061 b 113 1125 49 1106 68 1125 l 188 1125 b 543 826 463 1125 543 1003 l 543 172 m 188 -111 b 529 172 450 -111 529 4 l 529 826 b 188 1111 529 996 450 1111 l 113 1111 b 63 1061 78 1111 63 1096 l 63 893 b 113 843 63 858 78 843 l 156 843 b 213 774 200 843 213 822 l 213 224 b 156 154 213 175 200 154 l 113 154 b 63 104 78 154 63 139 l 63 -61 b 113 -111 63 -96 78 -111 l 188 -111 m 378 172 b 188 15 378 50 308 15 l 188 29 b 364 172 297 29 364 58 l 364 826 b 188 969 364 940 299 969 l 188 983 b 378 826 310 983 378 949 l 378 172 "},"!":{"ha":589,"x_min":0,"x_max":0,"o":"m 468 414 b 401 350 467 369 446 350 l 186 350 b 121 414 142 350 122 369 l 100 950 b 161 1014 99 994 117 1014 l 426 1014 b 488 950 471 1014 489 994 l 468 414 m 401 364 b 454 414 436 364 453 379 l 474 950 b 426 1000 475 985 461 1000 l 161 1000 b 114 950 126 1000 113 985 l 135 414 b 186 364 136 379 151 364 l 401 364 m 301 875 l 301 489 l 288 489 l 288 875 m 486 50 b 422 -14 486 6 467 -14 l 167 -14 b 103 50 122 -14 103 6 l 103 232 b 167 296 103 278 122 296 l 422 296 b 486 232 467 296 486 278 l 486 50 m 422 0 b 472 50 457 0 472 15 l 472 232 b 422 282 472 268 457 282 l 167 282 b 117 232 132 282 117 268 l 117 50 b 167 0 117 15 132 0 l 422 0 m 288 111 l 288 171 l 301 171 l 301 111 "},"?":{"ha":911,"x_min":0,"x_max":0,"o":"m 258 314 b 189 368 214 308 196 324 l 160 551 b 218 625 153 597 174 619 l 494 664 b 519 693 513 667 519 674 b 496 718 519 710 511 718 l 113 718 b 49 782 68 718 49 736 l 49 950 b 113 1014 49 994 68 1014 l 561 1014 b 863 756 751 1014 863 922 l 863 610 b 635 365 863 446 775 385 l 258 314 m 633 379 b 849 610 765 397 849 454 l 849 756 b 561 1000 849 914 742 1000 l 113 1000 b 63 950 78 1000 63 985 l 63 782 b 113 732 63 746 78 732 l 496 732 b 533 693 519 732 533 719 b 496 650 533 665 524 654 l 219 611 b 174 554 185 607 168 590 l 203 371 b 257 328 208 336 222 324 l 633 379 m 310 488 l 610 528 b 678 589 644 533 678 540 l 678 746 b 561 858 678 836 618 858 l 188 858 l 188 872 l 561 872 b 692 746 625 872 692 847 l 692 589 b 613 514 692 532 656 519 l 313 472 m 542 50 b 478 -14 542 6 522 -14 l 224 -14 b 160 50 178 -14 160 6 l 160 232 b 224 296 160 278 178 296 l 478 296 b 542 232 522 296 542 278 l 542 50 m 478 0 b 528 50 513 0 528 15 l 528 232 b 478 282 528 268 513 282 l 224 282 b 174 232 188 282 174 268 l 174 50 b 224 0 174 15 188 0 l 478 0 m 344 171 l 358 171 l 358 111 l 344 111 "},"a":{"ha":1014,"x_min":0,"x_max":0,"o":"m 236 378 l 778 378 l 778 421 b 756 550 778 471 769 513 l 660 776 b 572 861 639 825 624 861 l 436 861 b 347 778 381 861 365 825 l 258 550 b 236 421 244 513 236 471 m 458 708 b 485 732 465 725 474 732 l 519 732 b 546 708 531 732 539 725 l 611 497 l 393 497 l 458 708 m 533 703 b 519 718 529 711 526 718 l 485 718 b 471 703 478 718 475 711 l 472 704 l 413 511 l 592 511 l 532 704 m 778 364 l 236 364 l 236 125 l 222 125 l 222 421 b 246 556 222 472 231 515 l 335 783 b 436 875 356 835 372 875 l 572 875 b 672 782 633 875 650 836 l 768 556 b 792 421 783 515 792 472 l 792 125 l 778 125 m 379 244 l 625 244 l 625 50 b 679 0 625 15 642 0 l 889 0 b 939 50 924 0 939 15 l 939 417 b 885 639 939 472 922 542 l 764 954 b 694 1000 753 986 731 1000 l 321 1000 b 250 954 283 1000 261 986 l 129 639 b 75 417 92 542 75 472 l 75 50 b 125 0 75 15 90 0 l 329 0 b 379 50 364 0 379 15 m 125 -14 b 61 50 81 -14 61 6 l 61 417 b 117 644 61 474 78 544 l 238 958 b 321 1014 250 997 276 1014 l 694 1014 b 776 960 738 1014 764 997 l 897 644 b 953 417 936 544 953 474 l 953 50 b 889 -14 953 6 933 -14 l 679 -14 b 611 50 632 -14 611 7 l 611 231 l 393 231 l 393 50 b 329 -14 393 6 374 -14 l 125 -14 "},"b":{"ha":1007,"x_min":0,"x_max":0,"o":"m 146 -14 b 82 50 101 -14 82 6 l 82 950 b 146 1014 82 994 101 1014 l 589 1014 b 869 788 783 1014 869 940 l 869 721 b 814 579 869 654 851 608 b 963 356 914 556 963 486 l 963 228 b 679 -14 963 64 875 -14 l 146 -14 m 679 0 b 949 228 864 0 949 72 l 949 356 b 774 571 949 492 893 560 b 856 721 829 594 856 643 l 856 788 b 589 1000 856 933 771 1000 l 146 1000 b 96 950 111 1000 96 985 l 96 50 b 146 0 96 15 111 0 l 679 0 m 250 125 l 250 875 l 532 875 b 714 728 686 875 714 808 l 714 639 b 625 513 714 583 704 533 b 806 353 779 513 806 444 l 806 264 b 624 125 806 182 779 125 m 264 861 l 264 513 l 532 513 b 700 639 685 513 700 572 l 700 728 b 532 861 700 803 672 861 m 526 764 b 579 708 563 764 579 746 l 579 669 b 526 614 579 632 563 614 l 408 614 l 408 764 m 422 750 l 422 628 l 526 628 b 565 669 554 628 565 642 l 565 708 b 526 750 565 736 554 750 m 264 499 l 264 139 l 624 139 b 792 264 763 139 792 188 l 792 353 b 625 499 792 436 765 499 m 589 400 b 642 346 625 400 642 383 l 642 292 b 589 236 642 254 625 236 l 408 236 l 408 400 m 422 386 l 422 250 l 589 250 b 628 292 617 250 628 264 l 628 346 b 589 386 628 374 615 386 "},"c":{"ha":872,"x_min":0,"x_max":0,"o":"m 825 50 b 761 -14 825 6 806 -14 l 422 -14 b 67 283 178 -14 67 82 l 67 715 b 422 1014 67 918 178 1014 l 761 1014 b 825 950 806 1014 825 994 l 825 782 b 761 718 825 738 806 718 l 482 718 b 411 663 435 718 411 701 l 411 332 b 482 279 411 293 436 279 l 761 279 b 825 215 806 279 825 260 l 825 50 m 761 0 b 811 50 796 0 811 15 l 811 215 b 761 265 811 250 796 265 l 482 265 b 397 332 424 265 397 286 l 397 663 b 482 732 397 710 424 732 l 761 732 b 811 782 796 732 811 747 l 811 950 b 761 1000 811 985 796 1000 l 422 1000 b 81 715 189 1000 81 910 l 81 283 b 422 0 81 90 189 0 l 761 0 m 685 125 l 453 125 b 231 304 272 125 231 175 l 231 693 b 453 875 231 825 275 875 l 685 875 l 685 861 l 453 861 b 244 693 289 861 244 817 l 244 304 b 453 139 244 183 286 139 l 685 139 "},"d":{"ha":1036,"x_min":0,"x_max":0,"o":"m 969 283 b 614 -14 969 82 858 -14 l 146 -14 b 82 50 101 -14 82 6 l 82 950 b 146 1014 82 994 101 1014 l 614 1014 b 969 717 858 1014 969 918 l 969 283 m 614 0 b 956 283 847 0 956 90 l 956 717 b 614 1000 956 910 847 1000 l 146 1000 b 96 950 111 1000 96 985 l 96 50 b 146 0 96 15 111 0 l 614 0 m 247 875 l 583 875 b 806 682 772 875 806 789 l 806 314 b 583 125 806 207 775 125 l 247 125 m 261 861 l 261 139 l 583 139 b 792 314 761 139 792 213 l 792 682 b 583 861 792 783 758 861 m 576 735 b 642 668 621 735 642 714 l 642 331 b 576 263 642 283 621 263 l 411 263 l 411 735 m 425 721 l 425 276 l 576 276 b 628 331 611 276 628 293 l 628 668 b 576 721 628 704 611 721 "},"e":{"ha":908,"x_min":0,"x_max":0,"o":"m 146 -14 b 82 50 101 -14 82 6 l 82 950 b 146 1014 82 994 101 1014 l 790 1014 b 854 950 835 1014 854 994 l 854 788 b 790 724 854 743 835 724 l 421 724 l 421 644 l 678 644 b 742 581 722 644 742 625 l 742 432 b 678 368 742 388 722 368 l 421 368 l 421 276 l 790 276 b 854 213 835 276 854 257 l 854 50 b 790 -14 854 6 835 -14 l 146 -14 m 790 0 b 840 50 825 0 840 15 l 840 213 b 790 263 840 247 825 263 l 407 263 l 407 382 l 678 382 b 728 432 713 382 728 397 l 728 581 b 678 631 728 615 713 631 l 407 631 l 407 738 l 790 738 b 840 788 825 738 840 753 l 840 950 b 790 1000 840 985 825 1000 l 146 1000 b 96 950 111 1000 96 985 l 96 50 b 146 0 96 15 111 0 l 790 0 m 715 125 l 247 125 l 247 875 l 715 875 l 715 861 l 261 861 l 261 513 l 603 513 l 603 499 l 261 499 l 261 139 l 715 139 "},"f":{"ha":858,"x_min":0,"x_max":0,"o":"m 146 -14 b 82 50 101 -14 82 6 l 82 950 b 146 1014 82 994 101 1014 l 765 1014 b 829 950 810 1014 829 994 l 829 785 b 765 721 829 740 810 721 l 425 721 l 425 604 l 653 604 b 717 540 697 604 717 585 l 717 374 b 653 310 717 329 697 310 l 425 310 l 425 50 b 361 -14 425 6 406 -14 l 146 -14 m 361 0 b 411 50 396 0 411 15 l 411 324 l 653 324 b 703 374 688 324 703 339 l 703 540 b 653 590 703 575 688 590 l 411 590 l 411 735 l 765 735 b 815 785 800 735 815 750 l 815 950 b 765 1000 815 985 800 1000 l 146 1000 b 96 950 111 1000 96 985 l 96 50 b 146 0 96 15 111 0 l 361 0 m 247 875 l 690 875 l 690 861 l 261 861 l 261 464 l 578 464 l 578 450 l 261 450 l 261 125 l 247 125 "},"g":{"ha":983,"x_min":0,"x_max":0,"o":"m 422 -14 b 67 283 178 -14 67 82 l 67 717 b 422 1014 67 918 178 1014 l 769 1014 b 833 950 814 1014 833 994 l 833 782 b 769 718 833 738 814 718 l 481 718 b 410 663 433 718 410 701 l 410 331 b 460 276 410 293 425 276 l 581 276 l 581 479 b 644 543 581 524 600 543 l 860 543 b 924 479 904 543 924 524 l 924 50 b 860 -14 924 6 904 -14 l 422 -14 m 860 0 b 910 50 894 0 910 15 l 910 479 b 860 529 910 514 894 529 l 644 529 b 594 479 610 529 594 514 l 594 263 l 460 263 b 396 331 417 263 396 283 l 396 663 b 481 732 396 710 422 732 l 769 732 b 819 782 804 732 819 747 l 819 950 b 769 1000 819 985 804 1000 l 422 1000 b 81 717 189 1000 81 910 l 81 283 b 422 0 81 90 189 0 l 860 0 m 482 125 b 232 304 278 125 232 175 l 232 693 b 454 875 232 825 276 875 l 694 875 l 694 861 l 454 861 b 246 693 290 861 246 817 l 246 304 b 482 139 246 183 294 139 l 744 139 l 744 404 l 758 404 l 758 125 l 482 125 "},"h":{"ha":1054,"x_min":0,"x_max":0,"o":"m 246 875 l 260 875 l 260 507 l 793 507 l 793 875 l 807 875 l 807 125 l 793 125 l 793 493 l 260 493 l 260 125 l 246 125 m 361 0 b 411 50 396 0 411 15 l 411 358 l 643 358 l 643 50 b 693 0 643 15 658 0 l 908 0 b 958 50 943 0 958 15 l 958 950 b 908 1000 958 985 943 1000 l 693 1000 b 643 950 658 1000 643 985 l 643 649 l 411 649 l 411 950 b 361 1000 411 985 396 1000 l 146 1000 b 96 950 111 1000 96 985 l 96 50 b 146 0 96 15 111 0 l 361 0 m 146 -14 b 82 50 101 -14 82 6 l 82 950 b 146 1014 82 994 101 1014 l 361 1014 b 425 950 406 1014 425 994 l 425 663 l 629 663 l 629 950 b 693 1014 629 994 649 1014 l 908 1014 b 972 950 953 1014 972 994 l 972 50 b 908 -14 972 6 953 -14 l 693 -14 b 629 50 649 -14 629 6 l 629 344 l 425 344 l 425 50 b 361 -14 425 6 406 -14 l 146 -14 "},"i":{"ha":840,"x_min":0,"x_max":0,"o":"m 124 -14 b 60 50 79 -14 60 6 l 60 215 b 124 279 60 260 79 279 l 247 279 l 247 718 l 124 718 b 60 782 79 718 60 738 l 60 950 b 124 1014 60 994 79 1014 l 715 1014 b 779 950 760 1014 779 994 l 779 782 b 715 718 779 738 760 718 l 594 718 l 594 279 l 715 279 b 779 215 760 279 779 260 l 779 50 b 715 -14 779 6 760 -14 l 124 -14 m 715 0 b 765 50 750 0 765 15 l 765 215 b 715 265 765 250 750 265 l 581 265 l 581 732 l 715 732 b 765 782 750 732 765 747 l 765 950 b 715 1000 765 985 750 1000 l 124 1000 b 74 950 89 1000 74 985 l 74 782 b 124 732 74 747 89 732 l 261 732 l 261 265 l 124 265 b 74 215 89 265 74 250 l 74 50 b 124 0 74 15 89 0 m 199 125 l 199 139 l 414 139 l 414 861 l 199 861 l 199 875 l 640 875 l 640 861 l 428 861 l 428 139 l 640 139 l 640 125 "},"j":{"ha":956,"x_min":0,"x_max":0,"o":"m 881 263 b 460 -35 881 88 803 -35 b 43 263 121 -35 43 88 l 43 488 b 107 551 43 533 63 551 l 308 551 b 372 488 353 551 372 533 l 372 318 b 457 267 372 286 389 267 b 535 318 521 267 535 286 l 535 950 b 599 1014 535 994 554 1014 l 817 1014 b 881 950 861 1014 881 994 m 867 950 b 817 1000 867 985 851 1000 l 599 1000 b 549 950 564 1000 549 985 l 549 318 b 457 253 549 281 538 253 b 358 318 371 253 358 281 l 358 488 b 308 538 358 524 343 538 l 107 538 b 57 488 72 538 57 524 l 57 263 b 460 -21 57 93 136 -21 b 867 263 786 -21 867 93 m 714 875 l 714 296 b 463 108 714 186 660 108 b 201 296 254 108 201 185 l 201 406 l 215 406 l 215 296 b 463 122 215 190 271 122 b 700 296 646 122 700 192 l 700 875 "},"k":{"ha":1036,"x_min":0,"x_max":0,"o":"m 247 125 l 247 875 l 261 875 l 261 506 l 563 506 l 722 875 l 738 875 l 578 506 l 635 506 b 803 369 749 506 803 467 l 803 125 l 789 125 l 789 369 b 635 492 789 458 738 492 l 261 492 l 261 125 m 361 0 b 411 50 396 0 411 15 l 411 368 l 594 368 b 639 321 624 368 639 351 l 639 50 b 689 0 639 15 654 0 l 903 0 b 953 50 938 0 953 15 l 953 442 b 782 631 953 553 886 625 l 924 954 b 893 1000 936 983 925 1000 l 679 1000 b 610 954 643 1000 624 988 l 467 631 l 411 631 l 411 950 b 361 1000 411 985 396 1000 l 146 1000 b 96 950 111 1000 96 985 l 96 50 b 146 0 96 15 111 0 l 361 0 m 146 -14 b 82 50 101 -14 82 6 l 82 950 b 146 1014 82 994 101 1014 l 361 1014 b 425 950 406 1014 425 994 l 425 644 l 458 644 l 597 960 b 679 1014 614 999 636 1014 l 893 1014 b 936 949 939 1014 954 990 l 803 643 b 967 442 903 629 967 554 l 967 50 b 903 -14 967 6 947 -14 l 689 -14 b 625 50 644 -14 625 6 l 625 321 b 594 354 625 342 615 354 l 425 354 l 425 50 b 361 -14 425 6 406 -14 "},"l":{"ha":965,"x_min":0,"x_max":0,"o":"m 146 -14 b 82 50 101 -14 82 6 l 82 950 b 146 1014 82 994 101 1014 l 361 1014 b 425 950 406 1014 425 994 l 425 276 l 588 276 l 588 488 b 651 551 588 532 607 551 l 853 551 b 917 488 897 551 917 532 l 917 50 b 853 -14 917 6 897 -14 l 146 -14 m 853 0 b 903 50 888 0 903 15 l 903 488 b 853 538 903 522 888 538 l 651 538 b 601 488 617 538 601 522 l 601 263 l 411 263 l 411 950 b 361 1000 411 985 396 1000 l 146 1000 b 96 950 111 1000 96 985 l 96 50 b 146 0 96 15 111 0 l 853 0 m 247 875 l 261 875 l 261 139 l 744 139 l 744 413 l 758 413 l 758 125 l 247 125 "},"m":{"ha":1179,"x_min":0,"x_max":0,"o":"m 585 535 b 656 593 618 535 624 544 l 825 851 b 865 875 836 869 850 875 l 889 875 b 926 832 915 875 926 863 l 926 125 l 913 125 l 913 832 b 889 861 913 847 908 861 l 868 861 b 836 842 856 861 847 860 l 667 586 b 585 521 633 536 625 521 b 503 586 544 521 536 536 l 333 842 b 300 861 322 860 313 861 l 279 861 b 257 832 260 861 257 847 l 257 125 l 243 125 l 243 832 b 279 875 243 863 254 875 l 303 875 b 344 851 318 875 333 869 l 514 593 b 585 535 546 544 551 535 m 353 0 b 403 50 388 0 403 15 l 403 539 l 485 388 b 558 343 501 356 522 343 l 614 343 b 688 388 650 343 671 356 l 769 539 l 769 50 b 819 0 769 15 783 0 l 1033 0 b 1083 50 1068 0 1083 15 l 1083 950 b 1033 1000 1083 985 1068 1000 l 808 1000 b 744 958 779 1000 761 989 l 621 732 b 596 708 611 715 607 708 l 583 708 b 558 732 572 708 568 715 l 433 958 b 369 1000 417 989 399 1000 l 146 1000 b 96 950 111 1000 96 985 l 96 50 b 146 0 96 15 111 0 l 353 0 m 146 -14 b 82 50 101 -14 82 6 l 82 950 b 146 1014 82 994 101 1014 l 369 1014 b 446 965 404 1014 425 1001 l 571 739 b 583 722 575 731 576 722 l 596 722 b 608 739 603 722 604 731 l 732 965 b 808 1014 753 1001 774 1014 l 1033 1014 b 1097 950 1078 1014 1097 994 l 1097 50 b 1033 -14 1097 6 1078 -14 l 819 -14 b 756 50 774 -14 756 6 l 756 483 l 700 381 b 614 329 681 344 656 329 l 558 329 b 472 381 517 329 492 344 l 417 483 l 417 50 b 353 -14 417 6 397 -14 "},"n":{"ha":1046,"x_min":0,"x_max":0,"o":"m 790 289 l 790 875 l 804 875 l 804 125 l 790 125 l 790 268 l 265 857 b 258 861 263 860 261 861 b 256 857 256 861 256 858 l 256 125 l 242 125 l 242 860 b 258 876 242 871 250 876 b 279 864 267 876 269 874 m 354 0 b 404 50 389 0 404 15 l 404 508 l 642 221 l 642 50 b 692 0 642 15 657 0 l 900 0 b 950 50 935 0 950 15 l 950 950 b 900 1000 950 985 935 1000 l 692 1000 b 642 950 657 1000 642 985 l 642 654 l 372 963 b 290 1000 349 990 326 1000 l 146 1000 b 96 950 111 1000 96 985 l 96 50 b 146 0 96 15 111 0 l 354 0 m 146 -14 b 82 50 101 -14 82 6 l 82 950 b 146 1014 82 994 101 1014 l 290 1014 b 383 972 331 1014 356 1003 l 628 693 l 628 950 b 692 1014 628 994 647 1014 l 900 1014 b 964 950 944 1014 964 994 l 964 50 b 900 -14 964 6 944 -14 l 692 -14 b 628 50 647 -14 628 6 l 628 215 l 418 469 l 418 50 b 354 -14 418 6 399 -14 "},"o":{"ha":1024,"x_min":0,"x_max":0,"o":"m 957 263 b 513 -35 957 88 876 -35 b 67 263 149 -35 67 88 l 67 736 b 513 1035 67 911 149 1035 b 957 736 876 1035 957 911 m 943 736 b 513 1021 943 906 860 1021 b 81 736 165 1021 81 906 l 81 263 b 513 -21 81 93 165 -21 b 943 263 860 -21 943 93 m 792 294 b 510 107 792 182 728 107 b 231 294 292 107 231 182 l 231 704 b 510 892 231 817 292 892 b 792 704 728 892 792 817 l 792 294 m 244 294 b 510 121 244 190 303 121 b 778 294 717 121 778 190 l 778 704 b 510 878 778 808 717 878 b 244 704 303 878 244 808 l 244 294 m 396 686 b 513 750 396 722 413 750 b 629 686 614 750 629 722 l 629 313 b 513 247 629 275 614 247 b 396 313 413 247 396 275 m 410 313 b 513 261 410 279 433 261 b 615 313 592 261 615 279 l 615 686 b 513 736 615 718 592 736 b 410 686 435 736 410 718 "},"p":{"ha":947,"x_min":0,"x_max":0,"o":"m 146 -14 b 82 50 101 -14 82 6 l 82 950 b 146 1014 82 994 101 1014 l 571 1014 b 913 729 836 1014 913 897 l 913 551 b 571 267 913 383 836 267 l 425 267 l 425 50 b 361 -14 425 6 406 -14 l 146 -14 m 361 0 b 411 50 396 0 411 15 l 411 281 l 571 281 b 899 551 824 281 899 390 l 899 729 b 571 1000 899 890 824 1000 l 146 1000 b 96 950 111 1000 96 985 l 96 50 b 146 0 96 15 111 0 l 361 0 m 265 399 l 265 125 l 251 125 l 251 875 l 551 875 b 760 686 726 875 760 794 l 760 583 b 551 399 760 475 726 399 m 551 413 b 746 583 715 413 746 483 l 746 686 b 551 861 746 786 715 861 l 265 861 l 265 413 m 533 740 b 599 672 588 740 599 708 l 599 599 b 533 531 599 563 588 531 l 408 531 l 408 740 m 422 726 l 422 544 l 533 544 b 585 599 576 544 585 571 l 585 672 b 533 726 585 700 576 726 "},"q":{"ha":1024,"x_min":0,"x_max":0,"o":"m 404 -139 b 340 -75 360 -139 340 -119 l 340 -11 b 67 275 124 25 67 132 l 67 736 b 513 1035 67 911 149 1035 b 957 736 876 1035 957 911 l 957 275 b 682 -11 957 132 901 24 l 682 -75 b 618 -139 682 -119 663 -139 l 404 -139 m 618 -125 b 668 -75 653 -125 668 -110 l 668 1 b 943 275 886 32 943 135 l 943 736 b 513 1021 943 906 860 1021 b 81 736 165 1021 81 906 l 81 275 b 354 1 81 135 139 33 l 354 -75 b 404 -125 354 -110 369 -125 l 618 -125 m 503 107 b 231 294 290 108 231 183 l 231 704 b 510 892 231 817 292 892 b 792 704 728 892 792 817 l 792 294 b 517 107 792 183 729 108 l 517 0 l 503 0 m 244 294 b 510 121 244 190 303 121 b 778 294 717 121 778 190 l 778 704 b 510 878 778 808 717 878 b 244 704 303 878 244 808 l 244 294 m 396 685 b 513 749 396 721 413 749 b 629 685 614 749 629 721 l 629 306 b 513 240 629 268 614 240 b 396 306 413 240 396 268 m 410 306 b 513 254 410 272 433 254 b 615 306 592 254 615 272 l 615 685 b 513 735 615 717 592 735 b 410 685 435 735 410 717 "},"r":{"ha":1032,"x_min":0,"x_max":0,"o":"m 260 861 l 260 460 l 563 460 b 707 619 678 460 707 517 l 707 717 b 563 861 707 803 661 861 m 514 750 b 575 685 563 750 575 722 l 575 638 b 514 572 575 600 563 572 l 410 572 l 410 750 m 424 736 l 424 586 l 514 586 b 561 638 553 586 561 608 l 561 685 b 514 736 561 714 553 736 m 246 125 l 246 875 l 563 875 b 721 717 671 875 721 808 l 721 621 b 638 460 721 536 704 481 l 653 460 b 821 311 767 460 821 408 l 821 125 l 807 125 l 807 311 b 653 447 807 403 758 447 l 260 447 l 260 125 m 360 0 b 410 50 394 0 410 15 l 410 322 l 604 322 b 657 263 643 322 657 304 l 657 50 b 707 0 657 15 672 0 l 922 0 b 972 50 957 0 972 15 l 972 344 b 804 546 972 461 906 535 b 882 704 863 571 882 626 l 882 768 b 608 1000 882 906 817 1000 l 146 1000 b 96 950 111 1000 96 985 l 96 50 b 146 0 96 15 111 0 l 360 0 m 146 -14 b 82 50 101 -14 82 6 l 82 950 b 146 1014 82 994 101 1014 l 608 1014 b 896 768 829 1014 896 913 l 896 704 b 842 553 896 636 881 585 b 986 344 929 528 986 454 l 986 50 b 922 -14 986 6 967 -14 l 707 -14 b 643 50 663 -14 643 6 l 643 263 b 604 308 643 293 633 308 l 424 308 l 424 50 b 360 -14 424 6 404 -14 "},"s":{"ha":903,"x_min":0,"x_max":0,"o":"m 861 244 b 560 -14 861 78 749 -14 l 121 -14 b 57 50 76 -14 57 6 l 57 213 b 121 276 57 257 76 276 l 494 276 b 517 303 510 276 517 289 b 493 336 517 324 510 335 l 285 365 b 57 610 146 386 57 446 l 57 756 b 358 1014 57 922 168 1014 l 747 1014 b 811 950 792 1014 811 994 l 811 785 b 747 721 811 740 792 721 l 424 721 b 400 693 408 721 400 708 b 425 663 400 676 408 664 l 632 635 b 861 390 771 614 861 554 l 861 244 m 560 0 b 847 244 739 0 847 86 l 847 390 b 631 621 847 546 761 601 l 424 649 b 386 693 400 651 386 668 b 424 735 386 718 400 735 l 747 735 b 797 785 782 735 797 750 l 797 950 b 747 1000 797 985 782 1000 l 358 1000 b 71 756 178 1000 71 914 l 71 610 b 286 379 71 454 156 399 l 494 350 b 531 303 518 347 531 335 b 494 263 531 281 518 263 l 121 263 b 71 213 86 263 71 247 l 71 50 b 121 0 71 15 86 0 l 560 0 m 672 861 l 364 861 b 236 749 286 861 236 814 l 236 635 b 307 542 236 569 264 550 l 600 482 b 696 346 656 471 696 443 l 696 265 b 542 125 696 183 636 125 l 196 125 l 196 139 l 542 139 b 682 265 628 139 682 192 l 682 346 b 597 468 682 433 649 457 l 304 528 b 222 635 256 538 222 558 l 222 749 b 364 875 222 822 278 875 l 672 875 "},"t":{"ha":911,"x_min":0,"x_max":0,"o":"m 343 -14 b 279 50 299 -14 279 6 l 279 718 l 89 718 b 25 782 44 718 25 738 l 25 950 b 89 1014 25 994 44 1014 l 822 1014 b 886 950 867 1014 886 994 l 886 782 b 822 718 886 738 867 718 l 632 718 l 632 50 b 568 -14 632 6 613 -14 l 343 -14 m 568 0 b 618 50 603 0 618 15 l 618 732 l 822 732 b 872 782 857 732 872 747 l 872 950 b 822 1000 872 985 857 1000 l 89 1000 b 39 950 54 1000 39 985 l 39 782 b 89 732 39 747 54 732 l 293 732 l 293 50 b 343 0 293 15 308 0 l 568 0 m 449 861 l 164 861 l 164 875 l 747 875 l 747 861 l 463 861 l 463 125 l 449 125 "},"u":{"ha":1036,"x_min":0,"x_max":0,"o":"m 961 263 b 518 -35 961 88 879 -35 b 75 263 157 -35 75 88 l 75 950 b 139 1014 75 994 94 1014 l 357 1014 b 421 950 401 1014 421 994 l 421 317 b 521 265 421 283 444 265 b 622 317 599 265 622 283 l 622 950 b 686 1014 622 994 640 1014 l 897 1014 b 961 950 942 1014 961 994 m 947 950 b 897 1000 947 985 932 1000 l 686 1000 b 636 950 650 1000 636 985 l 636 317 b 521 251 636 279 619 251 b 407 317 424 251 407 279 l 407 950 b 357 1000 407 985 392 1000 l 139 1000 b 89 950 104 1000 89 985 l 89 263 b 518 -21 89 93 174 -21 b 947 263 863 -21 947 93 m 256 875 l 256 296 b 519 122 256 192 313 122 b 785 296 726 122 785 192 l 785 875 l 799 875 l 799 296 b 519 108 799 183 738 108 b 242 296 301 108 242 183 l 242 875 "},"v":{"ha":1014,"x_min":0,"x_max":0,"o":"m 771 40 b 688 -14 754 0 731 -14 l 326 -14 b 243 40 283 -14 260 0 l 107 381 b 61 583 72 467 61 493 l 61 950 b 125 1014 61 994 81 1014 l 346 1014 b 414 950 390 1014 414 993 l 414 567 b 424 514 414 549 418 533 l 490 319 b 503 306 493 310 494 306 l 518 306 b 532 319 526 306 528 310 l 597 515 b 607 568 603 535 607 550 l 607 950 b 671 1014 607 994 626 1014 l 889 1014 b 953 950 935 1014 953 994 l 953 583 b 907 381 953 493 942 467 l 771 40 m 688 0 b 758 46 724 0 744 11 l 894 386 b 939 583 928 469 939 496 l 939 950 b 889 1000 939 985 925 1000 l 671 1000 b 621 950 636 1000 621 985 l 621 568 b 610 511 621 549 617 532 l 544 315 b 518 292 539 297 533 292 l 503 292 b 476 315 488 292 482 297 l 411 510 b 400 567 404 531 400 547 l 400 950 b 346 1000 400 985 381 1000 l 125 1000 b 75 950 90 1000 75 985 l 75 583 b 119 386 75 496 86 469 l 256 46 b 326 0 269 11 290 0 l 688 0 m 246 875 l 246 575 b 268 446 246 526 253 483 l 360 224 b 447 139 379 175 394 139 l 569 139 b 657 224 622 139 638 175 l 749 446 b 771 575 764 483 771 526 l 771 875 l 785 875 l 785 575 b 763 440 785 524 779 481 l 671 218 b 569 125 649 164 628 125 l 447 125 b 346 218 389 125 368 164 l 254 440 b 232 575 238 481 232 524 l 232 875 "},"w":{"ha":1154,"x_min":0,"x_max":0,"o":"m 610 479 b 678 414 639 479 654 467 l 792 158 b 829 139 800 139 815 139 l 836 139 b 868 168 851 139 865 153 l 903 326 b 910 467 910 361 910 425 l 910 875 l 924 875 l 924 465 b 917 325 924 424 924 360 l 882 168 b 836 125 875 138 858 125 l 826 125 b 781 149 810 125 789 129 l 667 407 b 610 465 644 457 632 465 l 547 465 b 490 407 525 465 513 457 l 376 149 b 331 125 368 129 347 125 l 321 125 b 275 168 299 125 282 138 l 240 325 b 233 465 233 360 233 424 l 233 875 l 247 875 l 247 467 b 254 326 247 425 247 361 l 289 168 b 321 139 292 153 306 139 l 328 139 b 365 158 342 139 357 139 l 479 414 b 547 479 503 467 518 479 l 610 479 m 814 1000 b 764 950 778 1000 764 985 l 764 439 l 683 614 b 610 657 668 646 646 657 l 551 657 b 478 614 515 657 493 646 l 397 439 l 397 950 b 347 1000 397 985 382 1000 l 133 1000 b 83 950 99 1000 83 985 l 83 414 b 108 242 83 354 83 310 l 178 50 b 239 0 188 21 208 0 l 422 0 b 481 42 451 0 472 14 l 546 268 b 571 292 551 286 560 292 l 583 292 b 608 268 594 292 603 286 l 672 42 b 736 0 681 13 706 0 l 921 0 b 976 50 950 0 967 22 l 1046 239 b 1071 411 1071 307 1071 351 l 1071 950 b 1021 1000 1071 985 1056 1000 l 814 1000 m 239 -14 b 165 46 203 -14 176 10 l 96 238 b 69 414 69 307 69 353 l 69 950 b 133 1014 69 994 89 1014 l 347 1014 b 411 950 392 1014 411 994 l 411 501 l 465 619 b 551 671 483 657 508 671 l 610 671 b 696 619 653 671 678 657 l 750 501 l 750 950 b 814 1014 750 994 768 1014 l 1021 1014 b 1085 950 1065 1014 1085 994 l 1085 411 b 1058 235 1085 350 1085 304 l 989 46 b 921 -14 978 11 956 -14 l 736 -14 b 658 38 699 -14 669 3 l 594 264 b 583 278 593 272 589 278 l 571 278 b 560 264 565 278 561 272 l 494 38 b 422 -14 483 4 458 -14 "},"x":{"ha":1024,"x_min":0,"x_max":0,"o":"m 246 125 l 232 125 l 232 188 b 253 294 232 228 231 264 l 419 522 l 253 747 b 232 854 232 776 232 814 l 232 875 l 246 875 l 246 854 b 265 753 246 815 246 779 l 432 528 l 597 528 l 758 753 b 778 854 776 779 778 815 l 778 875 l 792 875 l 792 854 b 771 747 792 814 792 776 l 607 519 l 771 294 b 792 188 792 265 792 228 l 792 125 l 778 125 l 778 188 b 758 289 778 226 778 263 l 596 514 l 429 514 l 265 289 b 246 188 247 264 246 226 m 394 188 b 407 246 394 207 393 226 l 469 333 b 503 357 481 350 488 357 l 522 357 b 556 333 538 357 544 350 l 617 246 b 629 188 631 226 629 207 l 629 50 b 679 0 629 15 644 0 l 890 0 b 940 50 925 0 940 15 l 940 199 b 888 369 940 285 931 313 l 775 519 l 888 672 b 940 843 929 729 940 757 l 940 950 b 890 1000 940 985 925 1000 l 679 1000 b 629 950 644 1000 629 985 l 629 854 b 617 796 629 835 629 814 l 554 708 b 521 685 543 693 536 685 l 504 685 b 471 708 489 685 481 693 l 410 796 b 397 854 397 814 397 835 l 397 950 b 347 1000 397 985 382 1000 l 133 1000 b 83 950 99 1000 83 985 l 83 843 b 136 672 83 757 93 729 l 249 521 l 136 369 b 83 199 94 313 83 285 l 83 50 b 133 0 83 15 99 0 l 344 0 b 394 50 379 0 394 15 m 133 -14 b 69 50 89 -14 69 6 l 69 199 b 125 378 69 289 81 318 l 232 521 l 125 664 b 69 843 81 724 69 753 l 69 950 b 133 1014 69 994 89 1014 l 347 1014 b 411 950 392 1014 411 994 l 411 854 b 421 804 411 838 410 819 l 482 715 b 504 699 489 706 493 699 l 521 699 b 543 717 532 699 536 707 l 606 804 b 615 854 617 819 615 838 l 615 950 b 679 1014 615 994 635 1014 l 890 1014 b 954 950 935 1014 954 994 l 954 843 b 899 664 954 753 943 724 l 792 519 l 899 378 b 954 199 943 318 954 289 l 954 50 b 890 -14 954 6 935 -14 l 679 -14 b 615 50 635 -14 615 6 l 615 188 b 606 238 615 204 617 221 l 544 325 b 522 343 536 336 533 343 l 503 343 b 481 325 492 343 489 336 l 418 238 b 408 188 407 221 408 204 l 408 50 b 344 -14 408 6 389 -14 "},"y":{"ha":979,"x_min":0,"x_max":0,"o":"m 378 -14 b 314 50 332 -14 314 6 l 314 224 l 104 504 b 49 683 60 564 49 593 l 49 950 b 113 1014 49 994 68 1014 l 326 1014 b 390 950 371 1014 390 994 l 390 722 b 400 671 390 706 390 689 l 465 571 b 486 554 471 560 476 554 l 500 554 b 522 571 510 554 515 560 l 586 671 b 596 722 596 689 596 706 l 596 950 b 660 1014 596 994 615 1014 l 867 1014 b 931 950 911 1014 931 994 l 931 683 b 875 504 931 593 919 564 l 667 222 l 667 50 b 603 -14 667 6 647 -14 l 378 -14 m 603 0 b 653 50 638 0 653 15 l 653 226 l 864 513 b 917 683 906 569 917 597 l 917 950 b 867 1000 917 985 901 1000 l 660 1000 b 610 950 625 1000 610 985 l 610 722 b 597 664 610 703 610 683 l 533 564 b 500 540 524 547 515 540 l 486 540 b 453 564 471 540 463 547 l 389 664 b 376 722 376 683 376 703 l 376 950 b 326 1000 376 985 361 1000 l 113 1000 b 63 950 78 1000 63 985 l 63 683 b 115 513 63 597 72 569 l 328 228 l 328 50 b 378 0 328 15 342 0 l 603 0 m 497 363 l 497 125 l 483 125 l 483 363 l 469 363 b 368 421 429 363 399 379 l 233 608 b 213 715 213 636 213 675 l 213 875 l 226 875 l 226 715 b 246 614 226 676 228 642 l 381 426 b 469 376 406 389 438 376 l 507 376 b 597 426 542 376 569 390 l 736 614 b 756 715 756 639 756 676 l 756 875 l 769 875 l 769 715 b 749 608 769 675 771 638 l 610 421 b 507 363 579 381 550 363 "},"z":{"ha":917,"x_min":0,"x_max":0,"o":"m 114 -14 b 50 50 69 -14 50 6 l 50 236 b 88 331 50 276 61 303 l 407 718 l 139 718 b 75 782 94 718 75 738 l 75 950 b 139 1014 75 994 94 1014 l 778 1014 b 842 950 822 1014 842 994 l 842 743 b 804 647 842 701 831 675 l 500 279 l 803 279 b 867 215 847 279 867 260 l 867 50 b 803 -14 867 6 847 -14 l 114 -14 m 803 0 b 853 50 838 0 853 15 l 853 215 b 803 265 853 250 838 265 l 471 265 l 793 656 b 828 743 818 682 828 706 l 828 950 b 778 1000 828 985 813 1000 l 139 1000 b 89 950 104 1000 89 985 l 89 782 b 139 732 89 747 104 732 l 436 732 l 99 322 b 64 236 74 296 64 272 l 64 50 b 114 0 64 15 79 0 l 803 0 m 250 233 b 231 190 236 217 231 208 l 231 171 b 260 139 231 144 244 139 l 728 139 l 728 125 l 260 125 b 217 171 229 125 217 139 l 217 193 b 240 244 217 214 226 228 l 647 767 b 667 810 661 783 667 792 l 667 829 b 638 861 667 856 653 861 l 214 861 l 214 875 l 638 875 b 681 829 668 875 681 861 l 681 807 b 657 756 681 786 671 772 "}}}
